<svg width="35.000000" height="35.000000" viewBox="0 0 35 35" fill="none" xmlns="http://www.w3.org/2000/svg" xmlns:xlink="http://www.w3.org/1999/xlink">
	<desc>
			Created with Pixso.
	</desc>
	<defs/>
	<rect width="35.000000" height="35.000000" fill="#FFFFFF" fill-opacity="0"/>
	<circle cx="17.500000" cy="17.500000" r="17.500000" fill="#FCFCFC" fill-opacity="0.400000"/>
	<path d="M23 24L23 22.5556C23 21.7894 22.7102 21.0546 22.1946 20.5128C21.6787 19.971 20.9792 19.6667 20.25 19.6667L14.75 19.6667C14.0208 19.6667 13.3213 19.971 12.8054 20.5128C12.2898 21.0546 12 21.7894 12 22.5556L12 24M17.5 16.7778C15.9812 16.7778 14.75 15.4844 14.75 13.8889C14.75 12.2934 15.9812 11 17.5 11C19.0188 11 20.25 12.2934 20.25 13.8889C20.25 15.4844 19.0188 16.7778 17.5 16.7778Z" stroke="#FCFCFC" stroke-opacity="1.000000" stroke-width="2.000000" stroke-linejoin="round" stroke-linecap="round"/>
</svg>
