<svg width="97.791504" height="19.944000" viewBox="0 0 97.7915 19.944" fill="none" xmlns="http://www.w3.org/2000/svg" xmlns:xlink="http://www.w3.org/1999/xlink">
	<desc>
			Created with Pixso.
	</desc>
	<defs/>
	<path d="M0.33591 0.239998L4.53591 0.239998L6.93591 12.504L9.47991 0.239998L13.5359 0.239998L13.8959 19.68L11.0159 19.68L10.7039 6.48L8.20791 19.68L5.75991 19.68L3.19191 6.408L2.90391 19.68L-8.97646e-05 19.68L0.33591 0.239998ZM22.2074 19.944C20.1434 19.944 18.6714 19.408 17.7914 18.336C16.9114 17.248 16.4714 15.656 16.4714 13.56L16.4714 6.312C16.4714 4.216 16.9114 2.64 17.7914 1.584C18.6714 0.528 20.1434 0 22.2074 0C24.2554 0 25.7194 0.535999 26.5994 1.608C27.4954 2.664 27.9434 4.232 27.9434 6.312L27.9434 13.584C27.9434 15.664 27.4954 17.248 26.5994 18.336C25.7194 19.408 24.2554 19.944 22.2074 19.944ZM22.2074 17.112C22.8794 17.112 23.3274 16.888 23.5514 16.44C23.7914 15.976 23.9114 15.344 23.9114 14.544L23.9114 5.352C23.9114 4.552 23.7914 3.936 23.5514 3.504C23.3274 3.056 22.8794 2.832 22.2074 2.832C21.5354 2.832 21.0794 3.056 20.8394 3.504C20.6154 3.936 20.5034 4.552 20.5034 5.352L20.5034 14.544C20.5034 15.36 20.6154 15.992 20.8394 16.44C21.0634 16.888 21.5194 17.112 22.2074 17.112ZM36.0595 19.944C34.6195 19.944 33.4915 19.704 32.6755 19.224C31.8595 18.728 31.2835 18.016 30.9475 17.088C30.6115 16.16 30.4435 14.976 30.4435 13.536L30.4435 0.239998L34.3315 0.239998L34.3315 14.088C34.3315 15.016 34.4435 15.744 34.6675 16.272C34.8915 16.8 35.3555 17.064 36.0595 17.064C36.7635 17.064 37.2275 16.8 37.4515 16.272C37.6755 15.744 37.7875 15.016 37.7875 14.088L37.7875 0.239998L41.6995 0.239998L41.6995 13.536C41.6995 14.976 41.5315 16.16 41.1955 17.088C40.8595 18.016 40.2755 18.728 39.4435 19.224C38.6275 19.704 37.4995 19.944 36.0595 19.944ZM44.4625 0.239998L47.2225 0.239998L51.5425 10.344L51.5425 0.239998L54.8305 0.239998L54.8305 19.68L52.1665 19.68L47.8465 8.928L47.8465 19.68L44.4625 19.68L44.4625 0.239998ZM59.5756 3.168L56.5756 3.168L56.5756 0.239998L66.5116 0.239998L66.5116 3.168L63.5596 3.168L63.5596 19.68L59.5756 19.68L59.5756 3.168ZM70.3799 0.239998L74.7719 0.239998L78.5159 19.68L74.8679 19.68L74.1479 15.408L71.0759 15.408L70.3319 19.68L66.6119 19.68L70.3799 0.239998ZM73.7639 12.96L72.5879 5.136L71.4359 12.96L73.7639 12.96ZM80.534 0.239998L84.47 0.239998L84.47 19.68L80.534 19.68L80.534 0.239998ZM87.4235 0.239998L90.1835 0.239998L94.5035 10.344L94.5035 0.239998L97.7915 0.239998L97.7915 19.68L95.1275 19.68L90.8075 8.928L90.8075 19.68L87.4235 19.68L87.4235 0.239998Z" fill="#FCFCFC" fill-opacity="1.000000" fill-rule="evenodd"/>
</svg>
