<svg width="9.000000" height="9.000000" viewBox="0 0 9 9" fill="none" xmlns="http://www.w3.org/2000/svg" xmlns:xlink="http://www.w3.org/1999/xlink">
	<desc>
			Created with Pixso.
	</desc>
	<defs/>
	<path id="Vector" d="M4.5 0C6.98389 0 9 2.01611 9 4.5C9 6.98389 6.98389 9 4.5 9C2.01611 9 0 6.98389 0 4.5C0 2.01611 2.01611 0 4.5 0ZM4.5 0.899902C2.51123 0.899902 0.899902 2.51099 0.899902 4.5C0.899902 6.48901 2.51123 8.1001 4.5 8.1001C6.48877 8.1001 8.1001 6.48901 8.1001 4.5C8.1001 2.51099 6.48877 0.899902 4.5 0.899902ZM4.5 2.25C5.31885 2.25 6.03564 2.68774 6.42969 3.34253L5.6582 3.80566C5.53711 3.60327 5.36475 3.43628 5.15869 3.32129C4.95264 3.2063 4.71973 3.14722 4.48389 3.15015C4.24805 3.15308 4.0166 3.21777 3.81348 3.33789C3.61035 3.45801 3.44238 3.62915 3.32617 3.83447C3.20947 4.03979 3.14893 4.27197 3.15039 4.50806C3.15186 4.74414 3.21533 4.97559 3.33398 5.17944C3.45264 5.3833 3.62305 5.55273 3.82764 5.67041C4.03223 5.78784 4.26416 5.84985 4.5 5.8501C4.7334 5.8501 4.9624 5.78979 5.16553 5.67505C5.36816 5.5603 5.53809 5.39478 5.65771 5.19482L6.42969 5.65747C6.17676 6.07983 5.79248 6.40747 5.33496 6.59033C4.87793 6.77319 4.37354 6.80127 3.89941 6.66968C3.4248 6.53833 3.00635 6.25488 2.7085 5.86304C2.41064 5.47119 2.24951 4.99219 2.25 4.5C2.25 3.25806 3.25781 2.25 4.5 2.25Z" fill="#FCFCFC" fill-opacity="1.000000" fill-rule="nonzero"/>
</svg>
